<svg xmlns="http://www.w3.org/2000/svg" xmlns:xlink="http://www.w3.org/1999/xlink" width="420px" height="348px" version="1.1"><defs/><g transform="translate(0.5,0.5)"><path d="M 233 157 C 233 166 215 173 194 173 C 172 173 155 166 155 157 C 155 180 155 180 155 180 C 155 188 172 195 194 195 C 215 195 233 188 233 180 Z M 194 173 C 215 173 233 166 233 157 C 233 149 215 142 194 142 C 172 142 155 149 155 157 C 155 166 172 173 194 173 Z" fill="#036897" stroke="#ffffff" stroke-width="2" stroke-linejoin="round" stroke-miterlimit="10" pointer-events="none"/><path d="M 185 151 L 188 156 L 176 159 L 178 157 L 160 154 L 165 150 L 183 153 Z M 202 163 L 200 158 L 211 156 L 209 158 L 227 161 L 223 164 L 204 161 Z M 196 149 L 208 146 L 208 150 L 205 150 L 200 155 L 194 154 L 200 149 Z M 191 168 L 179 170 L 178 164 L 182 165 L 188 159 L 194 160 L 187 167 Z" fill="#ffffff" stroke="none" pointer-events="none"/><g fill="#000000" font-family="Helvetica" text-anchor="middle" font-size="12px"><text x="194" y="213">Rasberry Pi</text></g><path d="M 45 120 L 67 102 L 119 102 L 100 120 Z M 100 137 L 119 118 L 119 102 L 100 120 Z M 100 137 L 100 120 L 45 120 L 45 137 Z" fill="#036897" stroke="#ffffff" stroke-width="2" stroke-linejoin="round" stroke-miterlimit="10" pointer-events="none"/><path d="M 75 130 L 53 130 L 53 127 L 75 127 L 75 123 L 84 128 L 75 133 Z" fill="#ffffff" stroke="none" pointer-events="none"/><path d="M 55 127 L 55 123 L 46 128 L 55 133 L 55 130 Z" fill="#ffffff" stroke="none" pointer-events="none"/><path d="M 98 127 L 98 123 L 88 128 L 98 133 L 98 130 Z" fill="#ffffff" stroke="none" pointer-events="none"/><g fill="#000000" font-family="Helvetica" text-anchor="middle" font-size="12px"><text x="82" y="155">Modem</text></g><path d="M 155 168 L 107 130" fill="none" stroke="#000000" stroke-miterlimit="10" pointer-events="none"/><g fill="#000000" font-family="Helvetica" text-anchor="middle" font-size="11px"><rect fill="#ffffff" stroke="none" x="120" y="143" width="23" height="14" stroke-width="0"/><text x="131" y="153">eth0</text></g><path d="M 391 229 L 391 212 L 303 212 L 303 229 Z" fill="#036897" stroke="#ffffff" stroke-width="2" stroke-linejoin="round" stroke-miterlimit="10" pointer-events="none"/><path d="M 389 228 L 389 214 L 304 214 L 304 228 Z M 303 212 L 333 187 L 417 187 L 391 212 Z M 391 229 L 417 204 L 417 187 L 391 212 Z" fill="#036897" stroke="#ffffff" stroke-width="2" stroke-linejoin="round" stroke-miterlimit="10" pointer-events="none"/><rect x="303" y="187" width="0" height="0" fill="none" stroke="#ffffff" stroke-width="2" pointer-events="none"/><path d="M 369 214 C 372 216 374 218 374 220 C 374 225 369 228 363 228 C 356 228 352 225 352 220 C 352 216 356 213 363 213 C 365 213 367 213 369 214" fill="#036897" stroke="#ffffff" stroke-width="2" stroke-miterlimit="10" pointer-events="none"/><path d="M 313 223 L 308 223 L 308 219 L 313 219 Z M 347 223 L 342 223 L 342 219 L 347 219 Z M 387 223 L 382 223 L 382 219 L 387 219 Z" fill="#ffffff" stroke="none" pointer-events="none"/><path d="M 372 220 C 372 224 367 226 363 226 C 358 226 354 224 354 220 C 354 217 358 214 363 214 C 367 214 372 217 372 220 Z" fill="#ffffff" stroke="none" pointer-events="none"/><g fill="#000000" font-family="Helvetica" text-anchor="middle" font-size="12px"><text x="360" y="247">Device-A</text></g><path d="M 86 283 L 86 235 L 15 235 L 15 283 Z M 15 235 L 20 229 L 92 229 L 86 235 Z M 86 283 L 92 278 L 92 229 L 86 235 Z" fill="#036897" stroke="#ffffff" stroke-width="2" stroke-linejoin="round" stroke-miterlimit="10" pointer-events="none"/><rect x="15" y="229" width="0" height="0" fill="none" stroke="#ffffff" stroke-width="2" pointer-events="none"/><path d="M 57 264 C 58 262 59 260 59 257 C 59 255 58 252 57 250 C 59 247 59 247 59 247 C 61 249 62 253 61 257 C 61 261 61 265 59 268 Z" fill="#ffffff" stroke="none" pointer-events="none"/><path d="M 68 267 C 70 265 70 261 70 258 C 70 255 70 251 68 249 C 70 245 70 245 70 245 C 73 248 74 253 74 258 C 74 262 73 267 70 271 Z" fill="#ffffff" stroke="none" pointer-events="none"/><path d="M 44 264 C 43 262 42 260 42 257 C 42 255 43 252 44 250 C 42 247 42 247 42 247 C 40 249 39 253 39 257 C 39 261 40 265 42 268 Z" fill="#ffffff" stroke="none" pointer-events="none"/><path d="M 33 267 C 32 265 31 261 31 258 C 31 255 32 251 33 249 C 31 245 31 245 31 245 C 29 248 28 253 28 258 C 28 262 29 267 31 271 Z" fill="#ffffff" stroke="none" pointer-events="none"/><path d="M 50 259 L 50 275" fill="none" stroke="#ffffff" stroke-width="2" stroke-miterlimit="10" pointer-events="none"/><path d="M 51 257 C 51 258 51 259 50 259 C 49 259 49 258 49 257 C 49 257 49 256 50 256 C 51 256 51 257 51 257 Z" fill="#ffffff" stroke="none" pointer-events="none"/><g fill="#000000" font-family="Helvetica" text-anchor="middle" font-size="12px"><text x="53" y="301">WIFI</text></g><path d="M 300 284 L 302 287 L 296 319 L 294 318 Z M 237 318 L 239 319 L 296 319 L 294 318 Z" fill="#036897" stroke="#ffffff" stroke-width="2" stroke-linejoin="round" stroke-miterlimit="10" pointer-events="none"/><path d="M 294 320 C 294 326 294 326 294 326 C 293 327 293 327 293 327 C 293 327 289 328 290 331 C 274 345 274 345 274 345 C 274 339 274 339 274 339 Z" fill="#036897" stroke="#ffffff" stroke-width="2" stroke-linejoin="round" stroke-miterlimit="10" pointer-events="none"/><path d="M 212 339 L 212 345 L 274 345 L 274 339 Z" fill="#036897" stroke="#ffffff" stroke-width="2" stroke-linejoin="round" stroke-miterlimit="10" pointer-events="none"/><path d="M 237 320 L 294 320 L 274 339 L 212 339 Z M 294 318 L 300 284 L 244 284 L 237 318 Z M 289 314 L 294 288 L 248 288 L 243 314 Z" fill="#036897" stroke="#ffffff" stroke-width="2" stroke-linejoin="round" stroke-miterlimit="10" pointer-events="none"/><path d="M 238 321 L 224 333 M 243 321 L 229 333 M 248 321 L 233 333 M 252 321 L 238 333 M 257 321 L 242 333 M 261 321 L 247 333 M 266 321 L 252 333 M 271 321 L 256 333 M 275 321 L 261 333 M 280 321 L 266 333 M 285 321 L 270 333 M 290 321 L 275 333 M 225 332 L 277 332 M 229 329 L 279 329 M 232 326 L 283 326 M 236 324 L 286 324" fill="none" stroke="#ffffff" stroke-width="2" stroke-linejoin="round" stroke-miterlimit="10" pointer-events="none"/><path d="M 128 404 L 342 453" fill="none" stroke="#000000" stroke-miterlimit="10" pointer-events="none"/><path d="M 132 330 L 236 273" fill="none" stroke="#000000" stroke-miterlimit="10" pointer-events="none"/><g fill="#000000" font-family="Helvetica" text-anchor="middle" font-size="16px"><rect fill="#ffffff" stroke="none" x="163" y="294" width="44" height="21" stroke-width="0"/><text x="184" y="307">wlan0</text></g><path d="M 322 273 L 450 297" fill="none" stroke="#000000" stroke-miterlimit="10" pointer-events="none"/><g fill="#000000" font-family="Helvetica" text-anchor="middle" font-size="16px"><rect fill="#ffffff" stroke="none" x="370" y="277" width="33" height="21" stroke-width="0"/><text x="386" y="290">eth1</text></g><path d="M 334 225 L 570 268" fill="none" stroke="#000000" stroke-miterlimit="10" pointer-events="none"/><g fill="#000000" font-family="Helvetica" text-anchor="middle" font-size="16px"><rect fill="#ffffff" stroke="none" x="406" y="239" width="95" height="21" stroke-width="0"/><text x="452" y="252">/dev/ttyUSB0</text></g><path d="M 67 18 C 38 12 22 27 25 40 C 25 40 25 40 25 40 C 2 44 8 71 19 71 C 20 71 20 71 20 71 C 17 84 44 96 59 90 C 60 89 60 89 60 89 C 65 100 84 102 102 102 C 118 103 128 102 135 95 C 136 95 136 95 136 95 C 162 97 173 79 168 67 C 169 66 169 66 169 66 C 178 64 179 44 164 41 C 164 40 164 40 164 40 C 171 27 155 15 134 17 C 132 16 132 16 132 16 C 117 2 73 5 68 18 Z" fill="#036897" stroke="#ffffff" stroke-width="3" stroke-miterlimit="10" pointer-events="none"/><g fill="#000000" font-family="Helvetica" text-anchor="middle" font-size="17px"><text x="90" y="129">Internet</text></g><path d="M 90 102 L 118 147" fill="none" stroke="#000000" stroke-miterlimit="10" pointer-events="none"/><path d="M 25 334 L 37 90" fill="none" stroke="#000000" stroke-miterlimit="10" pointer-events="none"/></g></svg>